<svg id="Layer_1" data-name="Layer 1" xmlns="http://www.w3.org/2000/svg" viewBox="0 0 426.78 351.26"><defs><style>.cls-1{fill:#1a1a1a;stroke:#1a1a1a;stroke-miterlimit:10;}</style></defs><title>Logo 2 black</title><path class="cls-1" d="M1106.59,819.17V788.22h33.49a24.19,24.19,0,1,0-.13-14.32h-47.67v52.42l106.3,79.84v125.78h-161V934.28H1073V920h-49.78v126.29h189.65V899Zm56.52-48.2a9.87,9.87,0,1,1-9.87,9.87A9.88,9.88,0,0,1,1163.11,771Z" transform="translate(-786.61 -695.5)"/><path class="cls-1" d="M1131.53,971.51h-35.4a24.19,24.19,0,1,0,0,14.32h49.72V924.38l-106.08-80.06v-117h156.82v93.24h-33.48v14.32h47.8V713H1025.45V851.45l106.08,80.06Zm-58.51,17a9.87,9.87,0,1,1,9.87-9.87A9.88,9.88,0,0,1,1073,988.54Z" transform="translate(-786.61 -695.5)"/><path class="cls-1" d="M834.41,727.35H972.14V790.2h14.32V713H834.41a24.19,24.19,0,1,0,0,14.32Zm-23.11,2.71a9.87,9.87,0,1,1,9.87-9.87A9.88,9.88,0,0,1,811.3,730.06Z" transform="translate(-786.61 -695.5)"/><path class="cls-1" d="M861.19,885.15a24.19,24.19,0,0,0-7.25,47.27v99.52H801.43V788H905.32v68.82H863.85V819.49H849.53v51.66h70.1V773.68H787.11v272.57h81.15V932.47a24.19,24.19,0,0,0-7.07-47.33Zm0,34.06a9.87,9.87,0,1,1,9.87-9.87A9.88,9.88,0,0,1,861.19,919.21Z" transform="translate(-786.61 -695.5)"/><path class="cls-1" d="M986.46,855.51a24.19,24.19,0,1,0-14.32,0v60.2H932.91l42.34,116.23H923.54L901,966.52H885.89l27.44,79.73h82.38L953.36,930h33.1Zm-7.16-13.24a9.87,9.87,0,1,1,9.87-9.87A9.88,9.88,0,0,1,979.3,842.27Z" transform="translate(-786.61 -695.5)"/></svg>